<?xml version="1.0" encoding="UTF-8"?>
<svg xmlns="http://www.w3.org/2000/svg" version="1.2" baseProfile="tiny-ps" viewBox="0 0 512 512">
<title>DBA Kompas</title>
<rect width="512" height="512" fill="#FFFFFF"/>
<g fill="#1A2332">
<path d="M 288.5,293.0 108.0,474.0 103.0,490.0 106.5,500.5 112.0,506.5 121.5,511.5 375.5,511.5 290.0,457.0 276.5,443.5 267.5,426.5 264.5,412.0 265.5,395.0 Z"/>
<path d="M 511.5,140.0 456.0,226.0 443.5,238.5 428.0,247.0 412.5,250.5 396.5,250.0 293.5,227.0 473.5,407.0 485.0,412.0 502.0,407.5 511.5,391.5 Z"/>
<path d="M 27.0,100.5 10.5,104.0 0.0,119.0 0.0,372.5 55.5,286.0 67.0,274.5 83.0,265.5 102.5,261.5 115.5,262.5 218.5,285.5 38.5,106.0 Z"/>
<path d="M 144.0,1.5 230.0,56.5 242.0,69.0 249.5,83.0 253.0,96.0 253.0,113.5 230.0,218.0 409.5,38.5 414.5,28.5 411.5,11.5 405.5,5.0 397.0,1.5 Z"/>
</g>
<g fill="#E89B4A">
<path d="M 284.5,350.0 274.0,396.5 273.0,410.5 276.0,425.0 285.0,441.0 300.0,453.5 390.5,510.0 391.0,511.5 399.5,511.5 400.0,510.0 406.5,507.0 412.5,500.0 414.5,494.5 414.5,485.0 410.5,476.5 Z"/>
<path d="M 161.5,281.5 114.5,271.0 98.5,270.5 84.5,274.0 71.0,282.0 61.5,292.0 1.5,388.0 0.0,388.5 0.0,396.0 1.5,396.5 4.0,403.0 10.5,409.0 19.0,412.0 27.5,411.5 35.5,407.5 Z"/>
<path d="M 507.0,109.0 501.0,103.5 493.0,100.5 483.0,101.0 477.0,104.0 350.0,230.5 402.0,242.0 420.5,240.5 431.0,236.5 439.5,231.0 451.5,218.0 510.0,124.0 511.5,123.5 511.5,117.0 510.0,116.5 Z"/>
</g>
</svg>
