<?xml version="1.0" encoding="UTF-8"?>
<svg xmlns="http://www.w3.org/2000/svg" version="1.2" baseProfile="tiny-ps" viewBox="0 0 512 512">
  <title>DBA Kompas</title>
  <rect width="512" height="512" fill="#1A2332"/>
  <g transform="translate(256 256)">
    <g fill="#FFFFFF">
      <path d="M 0,0 L -176,-176 Q -16,-176 0,0 Z"/>
      <path d="M 0,0 L 176,-176 Q 176,-16 0,0 Z"/>
      <path d="M 0,0 L 176,176 Q 16,176 0,0 Z"/>
      <path d="M 0,0 L -176,176 Q -176,16 0,0 Z"/>
    </g>
    <g fill="#D4782A">
      <path d="M 0,0 L -132,-86 Q -64,-132 0,0 Z"/>
      <path d="M 0,0 L 86,-132 Q 132,-64 0,0 Z"/>
      <path d="M 0,0 L 132,86 Q 64,132 0,0 Z"/>
      <path d="M 0,0 L -86,132 Q -132,64 0,0 Z"/>
    </g>
  </g>
</svg>
